<?xml version="1.0" encoding="utf-8"?>
<!-- Generator: Adobe Illustrator 16.0.0, SVG Export Plug-In . SVG Version: 6.00 Build 0)  -->
<!DOCTYPE svg PUBLIC "-//W3C//DTD SVG 1.1//EN" "http://www.w3.org/Graphics/SVG/1.1/DTD/svg11.dtd">
<svg version="1.1" id="Calque_1" xmlns="http://www.w3.org/2000/svg" xmlns:xlink="http://www.w3.org/1999/xlink" x="0px" y="0px"
	 width="841.89px" height="595.28px" viewBox="0 0 841.89 595.28" enable-background="new 0 0 841.89 595.28" xml:space="preserve">
<g id="SPLINE_49_">
	
		<path fill="none" stroke="#1C1C1B" stroke-width="0.9921" stroke-linecap="round" stroke-linejoin="round" stroke-miterlimit="10" d="
		M76.683,432.239c-8.398,2.343-18.085,8.911-18.929,13.49c-0.379,2.059,0.493,5.36,6.718,15.408
		c3.009,4.858,7.544,12.966,12.21,14.312c12.292,3.546,25.075,5.091,37.866,4.842c210.147-7.001,420.46-7.611,630.646-1.83h0.098
		c11.91,0.232,23.812-1.205,35.259-4.507c4.343-1.254,8.562-8.8,11.365-13.321c5.793-9.352,6.605-12.426,6.252-14.341
		c-0.785-4.263-9.801-10.376-17.617-12.557c-11.469-3.222-23.349-4.74-35.259-4.507h-0.098c-210.18,5.78-420.487,5.17-630.63-1.831
		C101.768,427.146,89.004,428.777,76.683,432.239z"/>
</g>
<g id="POLYLINE_13_">
	<path fill="none" stroke="#000000" stroke-width="0" stroke-linecap="round" stroke-linejoin="round" stroke-miterlimit="10" d="
		M-923.748-1567.537"/>
</g>
<g id="SPLINE_50_">
	
		<path fill="none" stroke="#1C1C1B" stroke-width="0.9921" stroke-linecap="round" stroke-linejoin="round" stroke-miterlimit="10" d="
		M781.145,404.002c8.397-2.343,18.085-8.911,18.929-13.491c0.379-2.058-0.494-5.36-6.719-15.407
		c-3.009-4.858-7.544-12.966-12.21-14.312c-12.292-3.548-25.075-5.092-37.866-4.843c-210.147,7.001-420.46,7.612-630.645,1.831
		h-0.098c-11.91-0.233-23.813,1.204-35.259,4.507c-4.343,1.253-8.564,8.799-11.365,13.32c-5.793,9.353-6.606,12.427-6.253,14.341
		c0.785,4.264,9.801,10.377,17.618,12.558c11.469,3.222,23.348,4.739,35.259,4.507h0.098c210.18-5.781,420.486-5.17,630.629,1.831
		C756.059,409.095,768.822,407.463,781.145,404.002z"/>
</g>
</svg>
